#!OML:ASF E:\emotionWalksFemale\Project 1\Capture day 1\Session 1\Female1.ASF
:FULLY-SPECIFIED
:DEGREES
491
root 7.01209 15.0435 32.9963 193.112 26.855 -175.008
lowerback 11.7419 0.658186 -0.693951
upperback -0.284433 0.800556 -0.232686
thorax -6.90394 0.426791 0.00437806
lowerneck -7.68276 5.0263 -0.0870387
upperneck -4.48478 7.11814 3.18234
head -0.244895 3.72179 1.1269
rclavicle 3.99557e-014 -3.18055e-014
rhumerus -43.7027 12.2093 -90.1629
rradius 41.4546
rwrist 6.31874
rhand 0.174702 -55.3051
rfingers 7.12502
rthumb 25.7577 -83.5817
lclavicle 3.99557e-014 -3.18055e-014
lhumerus -20.1796 -3.3384 74.3312
lradius 38.9822
lwrist -11.9038
lhand -6.51022 -34.1865
lfingers 7.12502
lthumb 19.3418 -5.12843
rfemur -23.9612 -6.10534 28.2843
rtibia 41.3635
rfoot -28.3248 -32.6062
rtoes 15.4409
lfemur -25.1292 0.976773 -24.3269
ltibia 40.6374
lfoot -32.3553 18.7156
ltoes -8.58383
492
root 7.02327 15.0349 32.9388 193.263 27.2338 -174.828
lowerback 11.3876 0.70086 -0.493579
upperback -0.204272 0.881983 -0.327636
thorax -6.6143 0.458189 -0.217094
lowerneck -7.759 5.02635 0.195964
upperneck -4.52718 7.10584 3.1565
head -0.235245 3.71582 1.07378
rclavicle -6.12257e-014 -1.27222e-014
rhumerus -43.8138 12.1759 -90.1841
rradius 41.5725
rwrist 6.13409
rhand 0.619698 -55.2162
rfingers 7.12502
rthumb 26.1838 -83.4303
lclavicle -6.12257e-014 -1.27222e-014
lhumerus -20.1236 -3.90867 74.2186
lradius 39.0588
lwrist -11.6029
lhand -7.01506 -34.056
lfingers 7.12502
lthumb 18.8563 -4.94997
rfemur -24.2738 -6.00306 28.494
rtibia 41.2195
rfoot -26.9163 -32.7968
rtoes 12.3412
lfemur -24.9192 1.24002 -24.3327
ltibia 40.6311
lfoot -34.243 18.0461
ltoes -0.0762323
493
root 7.03793 15.0268 32.8814 193.366 27.6398 -174.634
lowerback 11.3746 0.866263 -0.774761
upperback -0.278216 1.07841 -0.0660693
thorax -6.69614 0.567057 0.182915
lowerneck -7.99686 4.95254 0.312314
upperneck -4.27418 6.96252 2.78388
head -0.0989689 3.63847 0.950074
rclavicle 8.94531e-015 4.77083e-015
rhumerus -44.2799 12.2694 -89.6822
rradius 41.7088
rwrist 5.99242
rhand 0.951709 -54.7313
rfingers 7.12502
rthumb 26.5016 -82.8979
lclavicle 8.94531e-015 4.77083e-015
lhumerus -20.3672 -4.20705 74.6846
lradius 39.1247
lwrist -11.5139
lhand -7.46211 -34.4099
lfingers 7.12502
lthumb 18.4263 -5.26266
rfemur -24.489 -5.8536 28.7177
rtibia 41.0702
rfoot -25.2517 -33.1758
rtoes 8.88002
lfemur -24.6124 1.54638 -24.3058
ltibia 40.6139
lfoot -35.3604 17.7503
ltoes 3.81317
494
root 7.04841 15.0273 32.8212 193.335 27.803 -174.725
lowerback 11.2921 0.841033 -0.818845
upperback -0.322115 1.03684 -0.0788234
thorax -6.69622 0.547366 0.202313
lowerneck -8.14287 4.97002 0.405473
upperneck -4.0406 6.95699 2.69422
head 0.00325531 3.63293 0.917012
rclavicle -6.38099e-014 -9.54166e-015
rhumerus -44.7572 12.4525 -89.5417
rradius 42.0412
rwrist 6.08342
rhand -0.397466 -51.1824
rfingers 7.12502
rthumb 25.2096 -79.5373
lclavicle -6.38099e-014 -9.54166e-015
lhumerus -20.7754 -4.6336 74.7885
lradius 39.4853
lwrist -11.2131
lhand -7.77476 -34.7638
lfingers 7.12502
lthumb 18.1255 -5.58838
rfemur -24.6981 -6.07427 28.7186
rtibia 40.9596
rfoot -25.2684 -33.0409
rtoes 8.9568
lfemur -24.2606 1.27483 -24.5191
ltibia 40.5564
lfoot -35.4906 18.2786
ltoes 4.25033
495
root 7.0553 15.0304 32.758 193.346 27.9257 -174.87
lowerback 11.2853 0.830479 -0.972973
upperback -0.461534 1.00506 0.0345921
thorax -6.84511 0.538167 0.412948
lowerneck -8.37206 5.01258 0.21001
upperneck -3.65995 6.99809 2.69384
head 0.152341 3.65327 0.965813
rclavicle -2.8625e-014 3.02153e-014
rhumerus -45.3748 12.8983 -89.2424
rradius 42.4776
rwrist 6.20524
rhand 0.0296265 -53.0948
rfingers 7.12502
rthumb 25.6187 -81.3915
lclavicle -2.8625e-014 3.02153e-014
lhumerus -21.4431 -4.86517 75.1457
lradius 39.9385
lwrist -11.1121
lhand -7.71833 -34.713
lfingers 7.12502
lthumb 18.1798 -5.54261
rfemur -24.982 -6.40186 28.67
rtibia 40.9094
rfoot -25.9954 -32.5637
rtoes 10.2761
lfemur -23.9549 0.842497 -24.7875
ltibia 40.4001
lfoot -34.4797 19.3731
ltoes 0.934252
